<?xml version="1.0" encoding="utf-8" ?>
<svg baseProfile="tiny" height="1600" version="1.2" width="622" xmlns="http://www.w3.org/2000/svg" xmlns:ev="http://www.w3.org/2001/xml-events" xmlns:xlink="http://www.w3.org/1999/xlink"><defs /><rect fill="white" height="12" opacity="0.3" rx="1" ry="1" stroke="black" width="41" x="0" y="15" /><text fill="black" font-family="Trebuchet MS" font-size="10" x="1" y="25">Name</text><rect fill="red" height="12" opacity="0.8" rx="1" ry="1" stroke="red" width="41" x="44" y="15" /><text fill="black" font-family="Trebuchet MS" font-size="10" x="45" y="25">Power</text><rect fill="black" height="12" opacity="0.9" rx="1" ry="1" stroke="black" width="41" x="88" y="15" /><text fill="white" font-family="Trebuchet MS" font-size="10" x="89" y="25">GND</text><rect fill="yellow" height="12" opacity="0.7" rx="1" ry="1" stroke="yellow" width="41" x="132" y="15" /><text fill="black" font-family="Trebuchet MS" font-size="10" x="133" y="25">Control</text><rect fill="green" height="12" opacity="0.3" rx="1" ry="1" stroke="darkolivegreen" width="41" x="176" y="15" /><text fill="darkolivegreen" font-family="Trebuchet MS" font-size="10" x="177" y="25">ADC</text><rect fill="blue" height="12" opacity="0.4" rx="1" ry="1" stroke="blue" width="41" x="220" y="15" /><text fill="black" font-family="Trebuchet MS" font-size="10" x="221" y="25">I2C/Wire</text><rect fill="darkmagenta" height="12" opacity="0.6" rx="1" ry="1" stroke="purple" width="41" x="264" y="15" /><text fill="midnightblue" font-family="Trebuchet MS" font-size="10" x="265" y="25">CAN </text><rect fill="yellow" height="12" opacity="0.3" rx="1" ry="1" stroke="darkgoldenrod" width="41" x="308" y="15" /><text fill="darkgoldenrod" font-family="Trebuchet MS" font-size="10" x="309" y="25">DAC</text><rect fill="grey" height="12" opacity="0.3" rx="1" ry="1" stroke="grey" width="41" x="352" y="15" /><text fill="black" font-family="Trebuchet MS" font-size="8" x="353" y="25">Serial</text><rect fill="purple" height="12" opacity="0.2" rx="1" ry="1" stroke="purple" width="41" x="396" y="15" /><text fill="indigo" font-family="Trebuchet MS" font-size="8" x="397" y="25">TIM</text><rect fill="orange" height="12" opacity="0.5" rx="1" ry="1" stroke="orange" width="41" x="440" y="15" /><text fill="black" font-family="Trebuchet MS" font-size="10" x="441" y="25">I2C</text><rect fill="slategray" height="12" opacity="0.7" rx="1" ry="1" stroke="black" width="41" x="484" y="15" /><text fill="black" font-family="Trebuchet MS" font-size="8" x="485" y="25">JTAG</text><rect fill="cadetblue" height="12" opacity="0.4" rx="1" ry="1" stroke="darkslategray" width="41" x="528" y="15" /><text fill="darkslategray" font-family="Trebuchet MS" font-size="8" x="529" y="25">SPI</text><rect fill="white" height="12" opacity="0.3" rx="1" ry="1" stroke="black" width="41" x="0" y="30" /><text fill="black" font-family="Trebuchet MS" font-size="10" x="1" y="40">white</text><rect fill="red" height="12" opacity="0.8" rx="1" ry="1" stroke="red" width="41" x="44" y="30" /><text fill="black" font-family="Trebuchet MS" font-size="10" x="45" y="40"> red</text><rect fill="black" height="12" opacity="0.9" rx="1" ry="1" stroke="black" width="41" x="88" y="30" /><text fill="white" font-family="Trebuchet MS" font-size="10" x="89" y="40"> black</text><rect fill="yellow" height="12" opacity="0.7" rx="1" ry="1" stroke="yellow" width="41" x="132" y="30" /><text fill="black" font-family="Trebuchet MS" font-size="10" x="133" y="40"> yellow</text><rect fill="green" height="12" opacity="0.3" rx="1" ry="1" stroke="darkolivegreen" width="41" x="176" y="30" /><text fill="darkolivegreen" font-family="Trebuchet MS" font-size="10" x="177" y="40"> green</text><rect fill="blue" height="12" opacity="0.4" rx="1" ry="1" stroke="blue" width="41" x="220" y="30" /><text fill="black" font-family="Trebuchet MS" font-size="10" x="221" y="40"> blue</text><rect fill="darkmagenta" height="12" opacity="0.6" rx="1" ry="1" stroke="purple" width="41" x="264" y="30" /><text fill="midnightblue" font-family="Trebuchet MS" font-size="10" x="265" y="40"> darkmagenta</text><rect fill="yellow" height="12" opacity="0.3" rx="1" ry="1" stroke="darkgoldenrod" width="41" x="308" y="30" /><text fill="darkgoldenrod" font-family="Trebuchet MS" font-size="10" x="309" y="40"> yellow</text><rect fill="grey" height="12" opacity="0.3" rx="1" ry="1" stroke="grey" width="41" x="352" y="30" /><text fill="black" font-family="Trebuchet MS" font-size="8" x="353" y="40"> grey</text><rect fill="purple" height="12" opacity="0.2" rx="1" ry="1" stroke="purple" width="41" x="396" y="30" /><text fill="indigo" font-family="Trebuchet MS" font-size="8" x="397" y="40"> purple</text><rect fill="orange" height="12" opacity="0.5" rx="1" ry="1" stroke="orange" width="41" x="440" y="30" /><text fill="black" font-family="Trebuchet MS" font-size="10" x="441" y="40"> orange</text><rect fill="slategray" height="12" opacity="0.7" rx="1" ry="1" stroke="black" width="41" x="484" y="30" /><text fill="black" font-family="Trebuchet MS" font-size="8" x="485" y="40"> slategray</text><rect fill="cadetblue" height="12" opacity="0.4" rx="1" ry="1" stroke="darkslategray" width="41" x="528" y="30" /><text fill="darkslategray" font-family="Trebuchet MS" font-size="8" x="529" y="40"> cadetblue</text><rect fill="white" height="12" opacity="0.3" rx="1" ry="1" stroke="black" width="41" x="0" y="60" /><text fill="black" font-family="Trebuchet MS" font-size="10" x="1" y="70">3V3</text><rect fill="red" height="12" opacity="0.8" rx="1" ry="1" stroke="red" width="41" x="44" y="60" /><text fill="black" font-family="Trebuchet MS" font-size="10" x="45" y="70">3V3</text><rect fill="white" height="12" opacity="0.3" rx="1" ry="1" stroke="black" width="41" x="0" y="75" /><text fill="black" font-family="Trebuchet MS" font-size="10" x="1" y="85">RST</text><rect fill="yellow" height="12" opacity="0.7" rx="1" ry="1" stroke="yellow" width="41" x="44" y="75" /><text fill="black" font-family="Trebuchet MS" font-size="10" x="45" y="85">RST</text><rect fill="white" height="12" opacity="0.3" rx="1" ry="1" stroke="black" width="41" x="0" y="90" /><text fill="black" font-family="Trebuchet MS" font-size="10" x="1" y="100">VBAT</text><rect fill="red" height="12" opacity="0.8" rx="1" ry="1" stroke="red" width="41" x="44" y="90" /><text fill="black" font-family="Trebuchet MS" font-size="10" x="45" y="100">VBAT</text><rect fill="white" height="12" opacity="0.3" rx="1" ry="1" stroke="black" width="41" x="0" y="105" /><text fill="black" font-family="Trebuchet MS" font-size="10" x="1" y="115">GND</text><rect fill="black" height="12" opacity="0.9" rx="1" ry="1" stroke="black" width="41" x="44" y="105" /><text fill="white" font-family="Trebuchet MS" font-size="10" x="45" y="115">GND</text><rect fill="white" height="12" opacity="0.3" rx="1" ry="1" stroke="black" width="41" x="0" y="120" /><text fill="black" font-family="Trebuchet MS" font-size="10" x="1" y="130">D7</text><rect fill="slategray" height="12" opacity="0.7" rx="1" ry="1" stroke="black" width="41" x="44" y="120" /><text fill="black" font-family="Trebuchet MS" font-size="8" x="45" y="130">JTAG_TMS</text><rect fill="white" height="12" opacity="0.3" rx="1" ry="1" stroke="black" width="41" x="0" y="135" /><text fill="black" font-family="Trebuchet MS" font-size="10" x="1" y="145">D6</text><rect fill="slategray" height="12" opacity="0.7" rx="1" ry="1" stroke="black" width="41" x="44" y="135" /><text fill="black" font-family="Trebuchet MS" font-size="8" x="45" y="145">JTAG_TCK</text><rect fill="white" height="12" opacity="0.3" rx="1" ry="1" stroke="black" width="41" x="0" y="150" /><text fill="black" font-family="Trebuchet MS" font-size="10" x="1" y="160">D5</text><rect fill="orange" height="12" opacity="0.5" rx="1" ry="1" stroke="orange" width="41" x="44" y="150" /><text fill="black" font-family="Trebuchet MS" font-size="10" x="45" y="160">I2S_WS</text><rect fill="slategray" height="12" opacity="0.7" rx="1" ry="1" stroke="black" width="41" x="88" y="150" /><text fill="black" font-family="Trebuchet MS" font-size="8" x="89" y="160">JTAG_TDI</text><rect fill="cadetblue" height="12" opacity="0.4" rx="1" ry="1" stroke="darkslategray" width="41" x="132" y="150" /><text fill="darkslategray" font-family="Trebuchet MS" font-size="8" x="133" y="160">SPI3_SS</text><rect fill="white" height="12" opacity="0.3" rx="1" ry="1" stroke="black" width="41" x="0" y="165" /><text fill="black" font-family="Trebuchet MS" font-size="10" x="1" y="175">D4</text><rect fill="orange" height="12" opacity="0.5" rx="1" ry="1" stroke="orange" width="41" x="44" y="165" /><text fill="black" font-family="Trebuchet MS" font-size="10" x="45" y="175">I2S_SCK</text><rect fill="slategray" height="12" opacity="0.7" rx="1" ry="1" stroke="black" width="41" x="88" y="165" /><text fill="black" font-family="Trebuchet MS" font-size="8" x="89" y="175">JTAG_TDO</text><rect fill="cadetblue" height="12" opacity="0.4" rx="1" ry="1" stroke="darkslategray" width="41" x="132" y="165" /><text fill="darkslategray" font-family="Trebuchet MS" font-size="8" x="133" y="175">SPI3_SCK</text><rect fill="white" height="12" opacity="0.3" rx="1" ry="1" stroke="black" width="41" x="0" y="180" /><text fill="black" font-family="Trebuchet MS" font-size="10" x="1" y="190">D3</text><rect fill="purple" height="12" opacity="0.2" rx="1" ry="1" stroke="purple" width="41" x="44" y="180" /><text fill="indigo" font-family="Trebuchet MS" font-size="8" x="45" y="190">TIM3_CH1</text><rect fill="slategray" height="12" opacity="0.7" rx="1" ry="1" stroke="black" width="41" x="88" y="180" /><text fill="black" font-family="Trebuchet MS" font-size="8" x="89" y="190">JTAG_TRST</text><rect fill="cadetblue" height="12" opacity="0.4" rx="1" ry="1" stroke="darkslategray" width="41" x="132" y="180" /><text fill="darkslategray" font-family="Trebuchet MS" font-size="8" x="133" y="190">SPI3_MISO</text><rect fill="white" height="12" opacity="0.3" rx="1" ry="1" stroke="black" width="41" x="0" y="195" /><text fill="black" font-family="Trebuchet MS" font-size="10" x="1" y="205">D2</text><rect fill="darkmagenta" height="12" opacity="0.6" rx="1" ry="1" stroke="purple" width="41" x="44" y="195" /><text fill="midnightblue" font-family="Trebuchet MS" font-size="10" x="45" y="205">CAN2_RX</text><rect fill="purple" height="12" opacity="0.2" rx="1" ry="1" stroke="purple" width="41" x="88" y="195" /><text fill="indigo" font-family="Trebuchet MS" font-size="8" x="89" y="205">TIM3_CH2</text><rect fill="cadetblue" height="12" opacity="0.4" rx="1" ry="1" stroke="darkslategray" width="41" x="132" y="195" /><text fill="darkslategray" font-family="Trebuchet MS" font-size="8" x="133" y="205">SPI3_MOSI</text><rect fill="white" height="12" opacity="0.3" rx="1" ry="1" stroke="black" width="41" x="0" y="210" /><text fill="black" font-family="Trebuchet MS" font-size="10" x="1" y="220">D1</text><rect fill="blue" height="12" opacity="0.4" rx="1" ry="1" stroke="blue" width="41" x="44" y="210" /><text fill="black" font-family="Trebuchet MS" font-size="10" x="45" y="220">SCL</text><rect fill="darkmagenta" height="12" opacity="0.6" rx="1" ry="1" stroke="purple" width="41" x="88" y="210" /><text fill="midnightblue" font-family="Trebuchet MS" font-size="10" x="89" y="220">CAN2_TX</text><rect fill="purple" height="12" opacity="0.2" rx="1" ry="1" stroke="purple" width="41" x="132" y="210" /><text fill="indigo" font-family="Trebuchet MS" font-size="8" x="133" y="220">TIM4_CH1</text><rect fill="white" height="12" opacity="0.3" rx="1" ry="1" stroke="black" width="41" x="0" y="225" /><text fill="black" font-family="Trebuchet MS" font-size="10" x="1" y="235">D0</text><rect fill="blue" height="12" opacity="0.4" rx="1" ry="1" stroke="blue" width="41" x="44" y="225" /><text fill="black" font-family="Trebuchet MS" font-size="10" x="45" y="235">SDA</text><rect fill="purple" height="12" opacity="0.2" rx="1" ry="1" stroke="purple" width="41" x="88" y="225" /><text fill="indigo" font-family="Trebuchet MS" font-size="8" x="89" y="235">TIM4_CH2</text><rect fill="white" height="12" opacity="0.3" rx="1" ry="1" stroke="black" width="41" x="578" y="255" /><text fill="black" font-family="Trebuchet MS" font-size="10" x="579" y="265">VIN</text><rect fill="red" height="12" opacity="0.8" rx="1" ry="1" stroke="red" width="41" x="534" y="255" /><text fill="black" font-family="Trebuchet MS" font-size="10" x="535" y="265">VIN</text><rect fill="white" height="12" opacity="0.3" rx="1" ry="1" stroke="black" width="41" x="578" y="270" /><text fill="black" font-family="Trebuchet MS" font-size="10" x="579" y="280">GND</text><rect fill="black" height="12" opacity="0.9" rx="1" ry="1" stroke="black" width="41" x="534" y="270" /><text fill="white" font-family="Trebuchet MS" font-size="10" x="535" y="280">GND</text><rect fill="white" height="12" opacity="0.3" rx="1" ry="1" stroke="black" width="41" x="578" y="285" /><text fill="black" font-family="Trebuchet MS" font-size="10" x="579" y="295">TX</text><rect fill="grey" height="12" opacity="0.3" rx="1" ry="1" stroke="grey" width="41" x="534" y="285" /><text fill="black" font-family="Trebuchet MS" font-size="8" x="535" y="295">UART1_TX</text><rect fill="purple" height="12" opacity="0.2" rx="1" ry="1" stroke="purple" width="41" x="490" y="285" /><text fill="indigo" font-family="Trebuchet MS" font-size="8" x="491" y="295">TIM1_CH2</text><rect fill="white" height="12" opacity="0.3" rx="1" ry="1" stroke="black" width="41" x="578" y="300" /><text fill="black" font-family="Trebuchet MS" font-size="10" x="579" y="310">RX</text><rect fill="grey" height="12" opacity="0.3" rx="1" ry="1" stroke="grey" width="41" x="534" y="300" /><text fill="black" font-family="Trebuchet MS" font-size="8" x="535" y="310">UART1_RX</text><rect fill="purple" height="12" opacity="0.2" rx="1" ry="1" stroke="purple" width="41" x="490" y="300" /><text fill="indigo" font-family="Trebuchet MS" font-size="8" x="491" y="310">TIM1_CH3</text><rect fill="white" height="12" opacity="0.3" rx="1" ry="1" stroke="black" width="41" x="578" y="315" /><text fill="black" font-family="Trebuchet MS" font-size="10" x="579" y="325">WKP</text><rect fill="green" height="12" opacity="0.3" rx="1" ry="1" stroke="darkolivegreen" width="41" x="534" y="315" /><text fill="darkolivegreen" font-family="Trebuchet MS" font-size="10" x="535" y="325">ADC0</text><rect fill="purple" height="12" opacity="0.2" rx="1" ry="1" stroke="purple" width="41" x="490" y="315" /><text fill="indigo" font-family="Trebuchet MS" font-size="8" x="491" y="325">TIM5_CH1</text><rect fill="white" height="12" opacity="0.3" rx="1" ry="1" stroke="black" width="41" x="578" y="330" /><text fill="black" font-family="Trebuchet MS" font-size="10" x="579" y="340">DAC</text><rect fill="green" height="12" opacity="0.3" rx="1" ry="1" stroke="darkolivegreen" width="41" x="534" y="330" /><text fill="darkolivegreen" font-family="Trebuchet MS" font-size="10" x="535" y="340">ADC4</text><rect fill="yellow" height="12" opacity="0.3" rx="1" ry="1" stroke="darkgoldenrod" width="41" x="490" y="330" /><text fill="darkgoldenrod" font-family="Trebuchet MS" font-size="10" x="491" y="340">DAC1</text><rect fill="white" height="12" opacity="0.3" rx="1" ry="1" stroke="black" width="41" x="578" y="345" /><text fill="black" font-family="Trebuchet MS" font-size="10" x="579" y="355">A5</text><rect fill="green" height="12" opacity="0.3" rx="1" ry="1" stroke="darkolivegreen" width="41" x="534" y="345" /><text fill="darkolivegreen" font-family="Trebuchet MS" font-size="10" x="535" y="355">ADC7</text><rect fill="purple" height="12" opacity="0.2" rx="1" ry="1" stroke="purple" width="41" x="490" y="345" /><text fill="indigo" font-family="Trebuchet MS" font-size="8" x="491" y="355">TIM3_CH2</text><rect fill="cadetblue" height="12" opacity="0.4" rx="1" ry="1" stroke="darkslategray" width="41" x="446" y="345" /><text fill="darkslategray" font-family="Trebuchet MS" font-size="8" x="447" y="355">SPI1_MOSI</text><rect fill="white" height="12" opacity="0.3" rx="1" ry="1" stroke="black" width="41" x="578" y="360" /><text fill="black" font-family="Trebuchet MS" font-size="10" x="579" y="370">A4</text><rect fill="green" height="12" opacity="0.3" rx="1" ry="1" stroke="darkolivegreen" width="41" x="534" y="360" /><text fill="darkolivegreen" font-family="Trebuchet MS" font-size="10" x="535" y="370">ADC6</text><rect fill="purple" height="12" opacity="0.2" rx="1" ry="1" stroke="purple" width="41" x="490" y="360" /><text fill="indigo" font-family="Trebuchet MS" font-size="8" x="491" y="370">TIM3_CH1</text><rect fill="cadetblue" height="12" opacity="0.4" rx="1" ry="1" stroke="darkslategray" width="41" x="446" y="360" /><text fill="darkslategray" font-family="Trebuchet MS" font-size="8" x="447" y="370">SPI1_MISO</text><rect fill="white" height="12" opacity="0.3" rx="1" ry="1" stroke="black" width="41" x="578" y="375" /><text fill="black" font-family="Trebuchet MS" font-size="10" x="579" y="385">A3</text><rect fill="green" height="12" opacity="0.3" rx="1" ry="1" stroke="darkolivegreen" width="41" x="534" y="375" /><text fill="darkolivegreen" font-family="Trebuchet MS" font-size="10" x="535" y="385">ADC5</text><rect fill="yellow" height="12" opacity="0.3" rx="1" ry="1" stroke="darkgoldenrod" width="41" x="490" y="375" /><text fill="darkgoldenrod" font-family="Trebuchet MS" font-size="10" x="491" y="385">DAC2</text><rect fill="cadetblue" height="12" opacity="0.4" rx="1" ry="1" stroke="darkslategray" width="41" x="446" y="375" /><text fill="darkslategray" font-family="Trebuchet MS" font-size="8" x="447" y="385">SPI1_SCK</text><rect fill="white" height="12" opacity="0.3" rx="1" ry="1" stroke="black" width="41" x="578" y="390" /><text fill="black" font-family="Trebuchet MS" font-size="10" x="579" y="400">A2</text><rect fill="green" height="12" opacity="0.3" rx="1" ry="1" stroke="darkolivegreen" width="41" x="534" y="390" /><text fill="darkolivegreen" font-family="Trebuchet MS" font-size="10" x="535" y="400">ADC12</text><rect fill="cadetblue" height="12" opacity="0.4" rx="1" ry="1" stroke="darkslategray" width="41" x="490" y="390" /><text fill="darkslategray" font-family="Trebuchet MS" font-size="8" x="491" y="400">SPI1_SS</text><rect fill="white" height="12" opacity="0.3" rx="1" ry="1" stroke="black" width="41" x="578" y="405" /><text fill="black" font-family="Trebuchet MS" font-size="10" x="579" y="415">A1</text><rect fill="green" height="12" opacity="0.3" rx="1" ry="1" stroke="darkolivegreen" width="41" x="534" y="405" /><text fill="darkolivegreen" font-family="Trebuchet MS" font-size="10" x="535" y="415">ADC13</text><rect fill="white" height="12" opacity="0.3" rx="1" ry="1" stroke="black" width="41" x="578" y="420" /><text fill="black" font-family="Trebuchet MS" font-size="10" x="579" y="430">A0</text><rect fill="green" height="12" opacity="0.3" rx="1" ry="1" stroke="darkolivegreen" width="41" x="534" y="420" /><text fill="darkolivegreen" font-family="Trebuchet MS" font-size="10" x="535" y="430">ADC15</text><text fill="black" font-family="Trebuchet MS" font-size="12" x="0" y="450">Power</text></svg>